<svg width="2497" height="1971" viewBox="0 0 2497 1971" fill="none" xmlns="http://www.w3.org/2000/svg">
<g style="mix-blend-mode:hard-light" opacity="0.3">
<path d="M1904.65 1277.09L1746.61 1367.43L1853.08 1366.29L1905.2 1459.13L1904.65 1277.09Z" fill="url(#paint0_linear_282_68)" fill-opacity="0.3"/>
<path d="M1905.48 1458.57L1747.43 1548.92L1853.9 1547.77L1906.02 1640.62L1905.48 1458.57Z" fill="url(#paint1_linear_282_68)" fill-opacity="0.3"/>
<path d="M2220.25 914.294L2062.2 1004.64L2168.67 1003.49L2220.79 1096.33L2220.25 914.294Z" fill="url(#paint2_linear_282_68)" fill-opacity="0.3"/>
<path d="M2063.32 1368.83L1905.28 1459.17L2011.74 1458.02L2063.86 1550.87L2063.32 1368.83Z" fill="url(#paint3_linear_282_68)" fill-opacity="0.3"/>
<path d="M2221.05 1278.55L2063.01 1368.89L2169.47 1367.74L2221.59 1460.59L2221.05 1278.55Z" fill="url(#paint4_linear_282_68)" fill-opacity="0.3"/>
<path d="M1904.25 1094.97L1746.21 1185.31L1852.68 1184.16L1904.8 1277.01L1904.25 1094.97Z" fill="url(#paint5_linear_282_68)" fill-opacity="0.3"/>
<path d="M2062.52 1004.57L1904.47 1094.92L2010.94 1093.77L2063.06 1186.62L2062.52 1004.57Z" fill="url(#paint6_linear_282_68)" fill-opacity="0.3"/>
<path d="M2220.65 1096.42L2062.6 1186.76L2169.07 1185.62L2221.19 1278.46L2220.65 1096.42Z" fill="url(#paint7_linear_282_68)" fill-opacity="0.3"/>
<path d="M2062.92 1186.7L1904.87 1277.04L2011.34 1275.9L2063.46 1368.74L2062.92 1186.7Z" fill="url(#paint8_linear_282_68)" fill-opacity="0.3"/>
<path d="M1432.26 1548L1274.22 1638.34L1380.68 1637.19L1432.8 1730.04L1432.26 1548Z" fill="url(#paint9_linear_282_68)" fill-opacity="0.3"/>
<path d="M1433.08 1729.48L1275.04 1819.82L1381.51 1818.67L1433.62 1911.52L1433.08 1729.48Z" fill="url(#paint10_linear_282_68)" fill-opacity="0.3"/>
<path d="M1747.85 1185.2L1589.81 1275.54L1696.28 1274.39L1748.4 1367.24L1747.85 1185.2Z" fill="url(#paint11_linear_282_68)" fill-opacity="0.3"/>
<path d="M1590.92 1639.73L1432.88 1730.07L1539.35 1728.93L1591.47 1821.77L1590.92 1639.73Z" fill="url(#paint12_linear_282_68)" fill-opacity="0.3"/>
<path d="M1748.65 1549.45L1590.61 1639.79L1697.08 1638.65L1749.2 1731.49L1748.65 1549.45Z" fill="url(#paint13_linear_282_68)" fill-opacity="0.3"/>
<path d="M1431.86 1365.87L1273.82 1456.21L1380.28 1455.07L1432.4 1547.91L1431.86 1365.87Z" fill="url(#paint14_linear_282_68)" fill-opacity="0.3"/>
<path d="M1590.12 1275.48L1432.08 1365.82L1538.55 1364.67L1590.67 1457.52L1590.12 1275.48Z" fill="url(#paint15_linear_282_68)" fill-opacity="0.3"/>
<path d="M1748.25 1367.32L1590.21 1457.67L1696.68 1456.52L1748.8 1549.37L1748.25 1367.32Z" fill="url(#paint16_linear_282_68)" fill-opacity="0.3"/>
<path d="M1590.52 1457.6L1432.48 1547.95L1538.95 1546.8L1591.07 1639.65L1590.52 1457.6Z" fill="url(#paint17_linear_282_68)" fill-opacity="0.3"/>
</g>
<g style="mix-blend-mode:hard-light" opacity="0.3">
<path d="M826.654 1287.09L668.612 1377.43L775.079 1376.29L827.199 1469.13L826.654 1287.09Z" fill="url(#paint18_linear_282_68)" fill-opacity="0.3"/>
<path d="M827.475 1468.57L669.433 1558.92L775.901 1557.77L828.02 1650.62L827.475 1468.57Z" fill="url(#paint19_linear_282_68)" fill-opacity="0.3"/>
<path d="M1142.25 924.294L984.204 1014.64L1090.67 1013.49L1142.79 1106.33L1142.25 924.294Z" fill="url(#paint20_linear_282_68)" fill-opacity="0.3"/>
<path d="M985.318 1378.83L827.276 1469.17L933.743 1468.02L985.863 1560.87L985.318 1378.83Z" fill="url(#paint21_linear_282_68)" fill-opacity="0.3"/>
<path d="M1143.05 1288.55L985.006 1378.89L1091.47 1377.74L1143.59 1470.59L1143.05 1288.55Z" fill="url(#paint22_linear_282_68)" fill-opacity="0.3"/>
<path d="M826.254 1104.97L668.211 1195.31L774.679 1194.16L826.798 1287.01L826.254 1104.97Z" fill="url(#paint23_linear_282_68)" fill-opacity="0.3"/>
<path d="M984.516 1014.57L826.474 1104.92L932.942 1103.77L985.061 1196.62L984.516 1014.57Z" fill="url(#paint24_linear_282_68)" fill-opacity="0.3"/>
<path d="M1142.65 1106.42L984.605 1196.76L1091.07 1195.62L1143.19 1288.46L1142.65 1106.42Z" fill="url(#paint25_linear_282_68)" fill-opacity="0.3"/>
<path d="M984.917 1196.7L826.874 1287.04L933.342 1285.9L985.461 1378.74L984.917 1196.7Z" fill="url(#paint26_linear_282_68)" fill-opacity="0.3"/>
<path d="M354.259 1558L196.216 1648.34L302.684 1647.19L354.803 1740.04L354.259 1558Z" fill="url(#paint27_linear_282_68)" fill-opacity="0.3"/>
<path d="M355.08 1739.48L197.037 1829.82L303.505 1828.67L355.625 1921.52L355.08 1739.48Z" fill="url(#paint28_linear_282_68)" fill-opacity="0.3"/>
<path d="M669.852 1195.2L511.81 1285.54L618.278 1284.39L670.397 1377.24L669.852 1195.2Z" fill="url(#paint29_linear_282_68)" fill-opacity="0.3"/>
<path d="M512.923 1649.73L354.88 1740.07L461.348 1738.93L513.467 1831.77L512.923 1649.73Z" fill="url(#paint30_linear_282_68)" fill-opacity="0.3"/>
<path d="M670.653 1559.45L512.611 1649.79L619.078 1648.65L671.198 1741.49L670.653 1559.45Z" fill="url(#paint31_linear_282_68)" fill-opacity="0.3"/>
<path d="M353.858 1375.87L195.816 1466.21L302.283 1465.07L354.403 1557.91L353.858 1375.87Z" fill="url(#paint32_linear_282_68)" fill-opacity="0.3"/>
<path d="M512.121 1285.48L354.078 1375.82L460.546 1374.67L512.666 1467.52L512.121 1285.48Z" fill="url(#paint33_linear_282_68)" fill-opacity="0.3"/>
<path d="M670.253 1377.32L512.21 1467.67L618.678 1466.52L670.797 1559.37L670.253 1377.32Z" fill="url(#paint34_linear_282_68)" fill-opacity="0.3"/>
<path d="M512.521 1467.6L354.479 1557.95L460.946 1556.8L513.066 1649.65L512.521 1467.6Z" fill="url(#paint35_linear_282_68)" fill-opacity="0.3"/>
</g>
<g style="mix-blend-mode:hard-light" opacity="0.55">
<path d="M1334.65 457.093L1176.61 547.435L1283.08 546.289L1335.2 639.134L1334.65 457.093Z" fill="url(#paint36_linear_282_68)" fill-opacity="0.3"/>
<path d="M1335.48 638.575L1177.43 728.917L1283.9 727.771L1336.02 820.616L1335.48 638.575Z" fill="url(#paint37_linear_282_68)" fill-opacity="0.3"/>
<path d="M1650.25 94.2947L1492.2 184.637L1598.67 183.49L1650.79 276.335L1650.25 94.2947Z" fill="url(#paint38_linear_282_68)" fill-opacity="0.3"/>
<path d="M1493.32 548.827L1335.28 639.169L1441.74 638.022L1493.86 730.867L1493.32 548.827Z" fill="url(#paint39_linear_282_68)" fill-opacity="0.3"/>
<path d="M1651.05 458.547L1493.01 548.889L1599.47 547.742L1651.59 640.587L1651.05 458.547Z" fill="url(#paint40_linear_282_68)" fill-opacity="0.3"/>
<path d="M1334.25 274.968L1176.21 365.309L1282.68 364.163L1334.8 457.008L1334.25 274.968Z" fill="url(#paint41_linear_282_68)" fill-opacity="0.3"/>
<path d="M1492.52 184.575L1334.47 274.917L1440.94 273.77L1493.06 366.616L1492.52 184.575Z" fill="url(#paint42_linear_282_68)" fill-opacity="0.3"/>
<path d="M1650.65 276.421L1492.6 366.763L1599.07 365.616L1651.19 458.461L1650.65 276.421Z" fill="url(#paint43_linear_282_68)" fill-opacity="0.3"/>
<path d="M1492.92 366.701L1334.87 457.043L1441.34 455.896L1493.46 548.741L1492.92 366.701Z" fill="url(#paint44_linear_282_68)" fill-opacity="0.3"/>
<path d="M862.259 727.997L704.216 818.339L810.684 817.193L862.803 910.038L862.259 727.997Z" fill="url(#paint45_linear_282_68)" fill-opacity="0.3"/>
<path d="M863.08 909.48L705.037 999.822L811.505 998.675L863.625 1091.52L863.08 909.48Z" fill="url(#paint46_linear_282_68)" fill-opacity="0.3"/>
<path d="M1177.85 365.199L1019.81 455.541L1126.28 454.395L1178.4 547.24L1177.85 365.199Z" fill="url(#paint47_linear_282_68)" fill-opacity="0.3"/>
<path d="M1020.92 819.731L862.88 910.073L969.348 908.927L1021.47 1001.77L1020.92 819.731Z" fill="url(#paint48_linear_282_68)" fill-opacity="0.3"/>
<path d="M1178.65 729.45L1020.61 819.792L1127.08 818.646L1179.2 911.491L1178.65 729.45Z" fill="url(#paint49_linear_282_68)" fill-opacity="0.3"/>
<path d="M861.858 545.872L703.816 636.214L810.283 635.068L862.403 727.913L861.858 545.872Z" fill="url(#paint50_linear_282_68)" fill-opacity="0.3"/>
<path d="M1020.12 455.479L862.078 545.821L968.546 544.675L1020.67 637.52L1020.12 455.479Z" fill="url(#paint51_linear_282_68)" fill-opacity="0.3"/>
<path d="M1178.25 547.325L1020.21 637.667L1126.68 636.52L1178.8 729.366L1178.25 547.325Z" fill="url(#paint52_linear_282_68)" fill-opacity="0.3"/>
<path d="M1020.52 637.605L862.479 727.947L968.946 726.801L1021.07 819.646L1020.52 637.605Z" fill="url(#paint53_linear_282_68)" fill-opacity="0.3"/>
</g>
<g style="mix-blend-mode:hard-light" opacity="0.3">
<path d="M1808.65 730.093L1650.61 820.435L1757.08 819.289L1809.2 912.134L1808.65 730.093Z" fill="url(#paint54_linear_282_68)" fill-opacity="0.3"/>
<path d="M1809.48 911.575L1651.43 1001.92L1757.9 1000.77L1810.02 1093.62L1809.48 911.575Z" fill="url(#paint55_linear_282_68)" fill-opacity="0.3"/>
<path d="M2124.25 367.295L1966.2 457.637L2072.67 456.49L2124.79 549.335L2124.25 367.295Z" fill="url(#paint56_linear_282_68)" fill-opacity="0.3"/>
<path d="M1967.32 821.827L1809.28 912.169L1915.74 911.022L1967.86 1003.87L1967.32 821.827Z" fill="url(#paint57_linear_282_68)" fill-opacity="0.3"/>
<path d="M2125.05 731.547L1967.01 821.889L2073.47 820.742L2125.59 913.587L2125.05 731.547Z" fill="url(#paint58_linear_282_68)" fill-opacity="0.3"/>
<path d="M1808.25 547.968L1650.21 638.309L1756.68 637.163L1808.8 730.008L1808.25 547.968Z" fill="url(#paint59_linear_282_68)" fill-opacity="0.3"/>
<path d="M1966.52 457.575L1808.47 547.917L1914.94 546.77L1967.06 639.616L1966.52 457.575Z" fill="url(#paint60_linear_282_68)" fill-opacity="0.3"/>
<path d="M2124.65 549.421L1966.6 639.763L2073.07 638.616L2125.19 731.461L2124.65 549.421Z" fill="url(#paint61_linear_282_68)" fill-opacity="0.3"/>
<path d="M1966.92 639.701L1808.87 730.043L1915.34 728.896L1967.46 821.741L1966.92 639.701Z" fill="url(#paint62_linear_282_68)" fill-opacity="0.3"/>
<path d="M1336.26 1001L1178.22 1091.34L1284.68 1090.19L1336.8 1183.04L1336.26 1001Z" fill="url(#paint63_linear_282_68)" fill-opacity="0.3"/>
<path d="M1337.08 1182.48L1179.04 1272.82L1285.51 1271.68L1337.62 1364.52L1337.08 1182.48Z" fill="url(#paint64_linear_282_68)" fill-opacity="0.3"/>
<path d="M1651.85 638.199L1493.81 728.541L1600.28 727.395L1652.4 820.24L1651.85 638.199Z" fill="url(#paint65_linear_282_68)" fill-opacity="0.3"/>
<path d="M1494.92 1092.73L1336.88 1183.07L1443.35 1181.93L1495.47 1274.77L1494.92 1092.73Z" fill="url(#paint66_linear_282_68)" fill-opacity="0.3"/>
<path d="M1652.65 1002.45L1494.61 1092.79L1601.08 1091.65L1653.2 1184.49L1652.65 1002.45Z" fill="url(#paint67_linear_282_68)" fill-opacity="0.3"/>
<path d="M1335.86 818.872L1177.82 909.214L1284.28 908.068L1336.4 1000.91L1335.86 818.872Z" fill="url(#paint68_linear_282_68)" fill-opacity="0.3"/>
<path d="M1494.12 728.479L1336.08 818.821L1442.55 817.675L1494.67 910.52L1494.12 728.479Z" fill="url(#paint69_linear_282_68)" fill-opacity="0.3"/>
<path d="M1652.25 820.325L1494.21 910.667L1600.68 909.52L1652.8 1002.37L1652.25 820.325Z" fill="url(#paint70_linear_282_68)" fill-opacity="0.3"/>
<path d="M1494.52 910.605L1336.48 1000.95L1442.95 999.801L1495.07 1092.65L1494.52 910.605Z" fill="url(#paint71_linear_282_68)" fill-opacity="0.3"/>
</g>
<defs>
<linearGradient id="paint0_linear_282_68" x1="1904.65" y1="1277.09" x2="1825.91" y2="1413.28" gradientUnits="userSpaceOnUse">
<stop stop-color="#FBF2ED"/>
<stop offset="1" stop-color="#656565"/>
</linearGradient>
<linearGradient id="paint1_linear_282_68" x1="1905.48" y1="1458.57" x2="1826.73" y2="1594.77" gradientUnits="userSpaceOnUse">
<stop stop-color="#FBF2ED"/>
<stop offset="1" stop-color="#656565"/>
</linearGradient>
<linearGradient id="paint2_linear_282_68" x1="2220.25" y1="914.294" x2="2141.5" y2="1050.49" gradientUnits="userSpaceOnUse">
<stop stop-color="#FBF2ED"/>
<stop offset="1" stop-color="#656565"/>
</linearGradient>
<linearGradient id="paint3_linear_282_68" x1="2063.32" y1="1368.83" x2="1984.57" y2="1505.02" gradientUnits="userSpaceOnUse">
<stop stop-color="#FBF2ED"/>
<stop offset="1" stop-color="#656565"/>
</linearGradient>
<linearGradient id="paint4_linear_282_68" x1="2221.05" y1="1278.55" x2="2142.3" y2="1414.74" gradientUnits="userSpaceOnUse">
<stop stop-color="#FBF2ED"/>
<stop offset="1" stop-color="#656565"/>
</linearGradient>
<linearGradient id="paint5_linear_282_68" x1="1904.25" y1="1094.97" x2="1825.5" y2="1231.16" gradientUnits="userSpaceOnUse">
<stop stop-color="#FBF2ED"/>
<stop offset="1" stop-color="#656565"/>
</linearGradient>
<linearGradient id="paint6_linear_282_68" x1="2062.52" y1="1004.57" x2="1983.77" y2="1140.77" gradientUnits="userSpaceOnUse">
<stop stop-color="#FBF2ED"/>
<stop offset="1" stop-color="#656565"/>
</linearGradient>
<linearGradient id="paint7_linear_282_68" x1="2220.65" y1="1096.42" x2="2141.9" y2="1232.61" gradientUnits="userSpaceOnUse">
<stop stop-color="#FBF2ED"/>
<stop offset="1" stop-color="#656565"/>
</linearGradient>
<linearGradient id="paint8_linear_282_68" x1="2062.92" y1="1186.7" x2="1984.17" y2="1322.89" gradientUnits="userSpaceOnUse">
<stop stop-color="#FBF2ED"/>
<stop offset="1" stop-color="#656565"/>
</linearGradient>
<linearGradient id="paint9_linear_282_68" x1="1432.26" y1="1548" x2="1353.51" y2="1684.19" gradientUnits="userSpaceOnUse">
<stop stop-color="#FBF2ED"/>
<stop offset="1" stop-color="#656565"/>
</linearGradient>
<linearGradient id="paint10_linear_282_68" x1="1433.08" y1="1729.48" x2="1354.33" y2="1865.67" gradientUnits="userSpaceOnUse">
<stop stop-color="#FBF2ED"/>
<stop offset="1" stop-color="#656565"/>
</linearGradient>
<linearGradient id="paint11_linear_282_68" x1="1747.85" y1="1185.2" x2="1669.1" y2="1321.39" gradientUnits="userSpaceOnUse">
<stop stop-color="#FBF2ED"/>
<stop offset="1" stop-color="#656565"/>
</linearGradient>
<linearGradient id="paint12_linear_282_68" x1="1590.92" y1="1639.73" x2="1512.17" y2="1775.92" gradientUnits="userSpaceOnUse">
<stop stop-color="#FBF2ED"/>
<stop offset="1" stop-color="#656565"/>
</linearGradient>
<linearGradient id="paint13_linear_282_68" x1="1748.65" y1="1549.45" x2="1669.9" y2="1685.64" gradientUnits="userSpaceOnUse">
<stop stop-color="#FBF2ED"/>
<stop offset="1" stop-color="#656565"/>
</linearGradient>
<linearGradient id="paint14_linear_282_68" x1="1431.86" y1="1365.87" x2="1353.11" y2="1502.06" gradientUnits="userSpaceOnUse">
<stop stop-color="#FBF2ED"/>
<stop offset="1" stop-color="#656565"/>
</linearGradient>
<linearGradient id="paint15_linear_282_68" x1="1590.12" y1="1275.48" x2="1511.37" y2="1411.67" gradientUnits="userSpaceOnUse">
<stop stop-color="#FBF2ED"/>
<stop offset="1" stop-color="#656565"/>
</linearGradient>
<linearGradient id="paint16_linear_282_68" x1="1748.25" y1="1367.32" x2="1669.5" y2="1503.52" gradientUnits="userSpaceOnUse">
<stop stop-color="#FBF2ED"/>
<stop offset="1" stop-color="#656565"/>
</linearGradient>
<linearGradient id="paint17_linear_282_68" x1="1590.52" y1="1457.6" x2="1511.77" y2="1593.8" gradientUnits="userSpaceOnUse">
<stop stop-color="#FBF2ED"/>
<stop offset="1" stop-color="#656565"/>
</linearGradient>
<linearGradient id="paint18_linear_282_68" x1="826.654" y1="1287.09" x2="747.905" y2="1423.28" gradientUnits="userSpaceOnUse">
<stop stop-color="#FBF2ED"/>
<stop offset="1" stop-color="#656565"/>
</linearGradient>
<linearGradient id="paint19_linear_282_68" x1="827.475" y1="1468.57" x2="748.726" y2="1604.77" gradientUnits="userSpaceOnUse">
<stop stop-color="#FBF2ED"/>
<stop offset="1" stop-color="#656565"/>
</linearGradient>
<linearGradient id="paint20_linear_282_68" x1="1142.25" y1="924.294" x2="1063.5" y2="1060.49" gradientUnits="userSpaceOnUse">
<stop stop-color="#FBF2ED"/>
<stop offset="1" stop-color="#656565"/>
</linearGradient>
<linearGradient id="paint21_linear_282_68" x1="985.318" y1="1378.83" x2="906.569" y2="1515.02" gradientUnits="userSpaceOnUse">
<stop stop-color="#FBF2ED"/>
<stop offset="1" stop-color="#656565"/>
</linearGradient>
<linearGradient id="paint22_linear_282_68" x1="1143.05" y1="1288.55" x2="1064.3" y2="1424.74" gradientUnits="userSpaceOnUse">
<stop stop-color="#FBF2ED"/>
<stop offset="1" stop-color="#656565"/>
</linearGradient>
<linearGradient id="paint23_linear_282_68" x1="826.254" y1="1104.97" x2="747.505" y2="1241.16" gradientUnits="userSpaceOnUse">
<stop stop-color="#FBF2ED"/>
<stop offset="1" stop-color="#656565"/>
</linearGradient>
<linearGradient id="paint24_linear_282_68" x1="984.516" y1="1014.57" x2="905.767" y2="1150.77" gradientUnits="userSpaceOnUse">
<stop stop-color="#FBF2ED"/>
<stop offset="1" stop-color="#656565"/>
</linearGradient>
<linearGradient id="paint25_linear_282_68" x1="1142.65" y1="1106.42" x2="1063.9" y2="1242.61" gradientUnits="userSpaceOnUse">
<stop stop-color="#FBF2ED"/>
<stop offset="1" stop-color="#656565"/>
</linearGradient>
<linearGradient id="paint26_linear_282_68" x1="984.917" y1="1196.7" x2="906.168" y2="1332.89" gradientUnits="userSpaceOnUse">
<stop stop-color="#FBF2ED"/>
<stop offset="1" stop-color="#656565"/>
</linearGradient>
<linearGradient id="paint27_linear_282_68" x1="354.258" y1="1558" x2="275.51" y2="1694.19" gradientUnits="userSpaceOnUse">
<stop stop-color="#FBF2ED"/>
<stop offset="1" stop-color="#656565"/>
</linearGradient>
<linearGradient id="paint28_linear_282_68" x1="355.08" y1="1739.48" x2="276.331" y2="1875.67" gradientUnits="userSpaceOnUse">
<stop stop-color="#FBF2ED"/>
<stop offset="1" stop-color="#656565"/>
</linearGradient>
<linearGradient id="paint29_linear_282_68" x1="669.852" y1="1195.2" x2="591.103" y2="1331.39" gradientUnits="userSpaceOnUse">
<stop stop-color="#FBF2ED"/>
<stop offset="1" stop-color="#656565"/>
</linearGradient>
<linearGradient id="paint30_linear_282_68" x1="512.923" y1="1649.73" x2="434.174" y2="1785.92" gradientUnits="userSpaceOnUse">
<stop stop-color="#FBF2ED"/>
<stop offset="1" stop-color="#656565"/>
</linearGradient>
<linearGradient id="paint31_linear_282_68" x1="670.653" y1="1559.45" x2="591.904" y2="1695.64" gradientUnits="userSpaceOnUse">
<stop stop-color="#FBF2ED"/>
<stop offset="1" stop-color="#656565"/>
</linearGradient>
<linearGradient id="paint32_linear_282_68" x1="353.858" y1="1375.87" x2="275.109" y2="1512.06" gradientUnits="userSpaceOnUse">
<stop stop-color="#FBF2ED"/>
<stop offset="1" stop-color="#656565"/>
</linearGradient>
<linearGradient id="paint33_linear_282_68" x1="512.121" y1="1285.48" x2="433.372" y2="1421.67" gradientUnits="userSpaceOnUse">
<stop stop-color="#FBF2ED"/>
<stop offset="1" stop-color="#656565"/>
</linearGradient>
<linearGradient id="paint34_linear_282_68" x1="670.253" y1="1377.32" x2="591.504" y2="1513.52" gradientUnits="userSpaceOnUse">
<stop stop-color="#FBF2ED"/>
<stop offset="1" stop-color="#656565"/>
</linearGradient>
<linearGradient id="paint35_linear_282_68" x1="512.521" y1="1467.6" x2="433.772" y2="1603.8" gradientUnits="userSpaceOnUse">
<stop stop-color="#FBF2ED"/>
<stop offset="1" stop-color="#656565"/>
</linearGradient>
<linearGradient id="paint36_linear_282_68" x1="1319.19" y1="455.788" x2="1296.48" y2="599.686" gradientUnits="userSpaceOnUse">
<stop stop-color="#FBF2EE"/>
<stop offset="1" stop-color="#9A9898"/>
</linearGradient>
<linearGradient id="paint37_linear_282_68" x1="1320.01" y1="637.27" x2="1297.3" y2="781.169" gradientUnits="userSpaceOnUse">
<stop stop-color="#FBF2EE"/>
<stop offset="1" stop-color="#9A9898"/>
</linearGradient>
<linearGradient id="paint38_linear_282_68" x1="1634.78" y1="92.9895" x2="1612.08" y2="236.888" gradientUnits="userSpaceOnUse">
<stop stop-color="#FBF2EE"/>
<stop offset="1" stop-color="#9A9898"/>
</linearGradient>
<linearGradient id="paint39_linear_282_68" x1="1477.85" y1="547.522" x2="1455.15" y2="691.42" gradientUnits="userSpaceOnUse">
<stop stop-color="#FBF2EE"/>
<stop offset="1" stop-color="#9A9898"/>
</linearGradient>
<linearGradient id="paint40_linear_282_68" x1="1635.58" y1="457.241" x2="1612.88" y2="601.14" gradientUnits="userSpaceOnUse">
<stop stop-color="#FBF2EE"/>
<stop offset="1" stop-color="#9A9898"/>
</linearGradient>
<linearGradient id="paint41_linear_282_68" x1="1318.79" y1="273.662" x2="1296.08" y2="417.561" gradientUnits="userSpaceOnUse">
<stop stop-color="#FBF2EE"/>
<stop offset="1" stop-color="#9A9898"/>
</linearGradient>
<linearGradient id="paint42_linear_282_68" x1="1477.05" y1="183.27" x2="1454.35" y2="327.168" gradientUnits="userSpaceOnUse">
<stop stop-color="#FBF2EE"/>
<stop offset="1" stop-color="#9A9898"/>
</linearGradient>
<linearGradient id="paint43_linear_282_68" x1="1635.18" y1="275.115" x2="1612.48" y2="419.014" gradientUnits="userSpaceOnUse">
<stop stop-color="#FBF2EE"/>
<stop offset="1" stop-color="#9A9898"/>
</linearGradient>
<linearGradient id="paint44_linear_282_68" x1="1477.45" y1="365.396" x2="1454.75" y2="509.294" gradientUnits="userSpaceOnUse">
<stop stop-color="#FBF2EE"/>
<stop offset="1" stop-color="#9A9898"/>
</linearGradient>
<linearGradient id="paint45_linear_282_68" x1="846.791" y1="726.692" x2="824.088" y2="870.591" gradientUnits="userSpaceOnUse">
<stop stop-color="#FBF2EE"/>
<stop offset="1" stop-color="#9A9898"/>
</linearGradient>
<linearGradient id="paint46_linear_282_68" x1="847.612" y1="908.175" x2="824.909" y2="1052.07" gradientUnits="userSpaceOnUse">
<stop stop-color="#FBF2EE"/>
<stop offset="1" stop-color="#9A9898"/>
</linearGradient>
<linearGradient id="paint47_linear_282_68" x1="1162.38" y1="363.894" x2="1139.68" y2="507.793" gradientUnits="userSpaceOnUse">
<stop stop-color="#FBF2EE"/>
<stop offset="1" stop-color="#9A9898"/>
</linearGradient>
<linearGradient id="paint48_linear_282_68" x1="1005.45" y1="818.426" x2="982.752" y2="962.324" gradientUnits="userSpaceOnUse">
<stop stop-color="#FBF2EE"/>
<stop offset="1" stop-color="#9A9898"/>
</linearGradient>
<linearGradient id="paint49_linear_282_68" x1="1163.19" y1="728.145" x2="1140.48" y2="872.044" gradientUnits="userSpaceOnUse">
<stop stop-color="#FBF2EE"/>
<stop offset="1" stop-color="#9A9898"/>
</linearGradient>
<linearGradient id="paint50_linear_282_68" x1="846.39" y1="544.567" x2="823.688" y2="688.466" gradientUnits="userSpaceOnUse">
<stop stop-color="#FBF2EE"/>
<stop offset="1" stop-color="#9A9898"/>
</linearGradient>
<linearGradient id="paint51_linear_282_68" x1="1004.65" y1="454.174" x2="981.95" y2="598.073" gradientUnits="userSpaceOnUse">
<stop stop-color="#FBF2EE"/>
<stop offset="1" stop-color="#9A9898"/>
</linearGradient>
<linearGradient id="paint52_linear_282_68" x1="1162.78" y1="546.02" x2="1140.08" y2="689.918" gradientUnits="userSpaceOnUse">
<stop stop-color="#FBF2EE"/>
<stop offset="1" stop-color="#9A9898"/>
</linearGradient>
<linearGradient id="paint53_linear_282_68" x1="1005.05" y1="636.3" x2="982.351" y2="780.198" gradientUnits="userSpaceOnUse">
<stop stop-color="#FBF2EE"/>
<stop offset="1" stop-color="#9A9898"/>
</linearGradient>
<linearGradient id="paint54_linear_282_68" x1="1808.65" y1="730.093" x2="1729.91" y2="866.284" gradientUnits="userSpaceOnUse">
<stop stop-color="#FBF2ED"/>
<stop offset="1" stop-color="#656565"/>
</linearGradient>
<linearGradient id="paint55_linear_282_68" x1="1809.48" y1="911.575" x2="1730.73" y2="1047.77" gradientUnits="userSpaceOnUse">
<stop stop-color="#FBF2ED"/>
<stop offset="1" stop-color="#656565"/>
</linearGradient>
<linearGradient id="paint56_linear_282_68" x1="2124.25" y1="367.295" x2="2045.5" y2="503.486" gradientUnits="userSpaceOnUse">
<stop stop-color="#FBF2ED"/>
<stop offset="1" stop-color="#656565"/>
</linearGradient>
<linearGradient id="paint57_linear_282_68" x1="1967.32" y1="821.827" x2="1888.57" y2="958.018" gradientUnits="userSpaceOnUse">
<stop stop-color="#FBF2ED"/>
<stop offset="1" stop-color="#656565"/>
</linearGradient>
<linearGradient id="paint58_linear_282_68" x1="2125.05" y1="731.547" x2="2046.3" y2="867.738" gradientUnits="userSpaceOnUse">
<stop stop-color="#FBF2ED"/>
<stop offset="1" stop-color="#656565"/>
</linearGradient>
<linearGradient id="paint59_linear_282_68" x1="1808.25" y1="547.967" x2="1729.5" y2="684.159" gradientUnits="userSpaceOnUse">
<stop stop-color="#FBF2ED"/>
<stop offset="1" stop-color="#656565"/>
</linearGradient>
<linearGradient id="paint60_linear_282_68" x1="1966.52" y1="457.575" x2="1887.77" y2="593.766" gradientUnits="userSpaceOnUse">
<stop stop-color="#FBF2ED"/>
<stop offset="1" stop-color="#656565"/>
</linearGradient>
<linearGradient id="paint61_linear_282_68" x1="2124.65" y1="549.421" x2="2045.9" y2="685.612" gradientUnits="userSpaceOnUse">
<stop stop-color="#FBF2ED"/>
<stop offset="1" stop-color="#656565"/>
</linearGradient>
<linearGradient id="paint62_linear_282_68" x1="1966.92" y1="639.701" x2="1888.17" y2="775.892" gradientUnits="userSpaceOnUse">
<stop stop-color="#FBF2ED"/>
<stop offset="1" stop-color="#656565"/>
</linearGradient>
<linearGradient id="paint63_linear_282_68" x1="1336.26" y1="1001" x2="1257.51" y2="1137.19" gradientUnits="userSpaceOnUse">
<stop stop-color="#FBF2ED"/>
<stop offset="1" stop-color="#656565"/>
</linearGradient>
<linearGradient id="paint64_linear_282_68" x1="1337.08" y1="1182.48" x2="1258.33" y2="1318.67" gradientUnits="userSpaceOnUse">
<stop stop-color="#FBF2ED"/>
<stop offset="1" stop-color="#656565"/>
</linearGradient>
<linearGradient id="paint65_linear_282_68" x1="1651.85" y1="638.199" x2="1573.1" y2="774.391" gradientUnits="userSpaceOnUse">
<stop stop-color="#FBF2ED"/>
<stop offset="1" stop-color="#656565"/>
</linearGradient>
<linearGradient id="paint66_linear_282_68" x1="1494.92" y1="1092.73" x2="1416.17" y2="1228.92" gradientUnits="userSpaceOnUse">
<stop stop-color="#FBF2ED"/>
<stop offset="1" stop-color="#656565"/>
</linearGradient>
<linearGradient id="paint67_linear_282_68" x1="1652.65" y1="1002.45" x2="1573.9" y2="1138.64" gradientUnits="userSpaceOnUse">
<stop stop-color="#FBF2ED"/>
<stop offset="1" stop-color="#656565"/>
</linearGradient>
<linearGradient id="paint68_linear_282_68" x1="1335.86" y1="818.872" x2="1257.11" y2="955.064" gradientUnits="userSpaceOnUse">
<stop stop-color="#FBF2ED"/>
<stop offset="1" stop-color="#656565"/>
</linearGradient>
<linearGradient id="paint69_linear_282_68" x1="1494.12" y1="728.479" x2="1415.37" y2="864.671" gradientUnits="userSpaceOnUse">
<stop stop-color="#FBF2ED"/>
<stop offset="1" stop-color="#656565"/>
</linearGradient>
<linearGradient id="paint70_linear_282_68" x1="1652.25" y1="820.325" x2="1573.5" y2="956.516" gradientUnits="userSpaceOnUse">
<stop stop-color="#FBF2ED"/>
<stop offset="1" stop-color="#656565"/>
</linearGradient>
<linearGradient id="paint71_linear_282_68" x1="1494.52" y1="910.605" x2="1415.77" y2="1046.8" gradientUnits="userSpaceOnUse">
<stop stop-color="#FBF2ED"/>
<stop offset="1" stop-color="#656565"/>
</linearGradient>
</defs>
</svg>
