<svg width="247" height="54" viewBox="0 0 247 54" fill="none" xmlns="http://www.w3.org/2000/svg">
<path d="M20.7478 6.83044V8.67723H12.0967V32.2742H8.6511V8.67723H0V6.83044H20.7478Z" fill="white"/>
<path d="M40.2082 12.1205V32.2741H37.506V22.6173H27.5237V32.2741H24.8232V12.1205H27.5237V21.1468H37.506V12.1205H40.2082Z" fill="white"/>
<path d="M60.5665 30.8037V32.2741H48.8623V12.1205H59.4306V13.5967H51.5627V20.9451H56.4951V22.4155H51.5627V30.8541L60.5665 30.8037Z" fill="white"/>
<path d="M95.6024 30.4254C96.7889 30.4279 97.9673 30.2154 99.0878 29.7968C100.2 29.3831 101.235 28.7582 102.141 27.952L103.237 29.339C102.173 30.2985 100.961 31.0514 99.6557 31.5641C98.3562 32.0682 96.9843 32.3236 95.6024 32.3187C93.7975 32.3483 92.004 32.0066 90.3191 31.3119C88.8278 30.6922 87.4643 29.7648 86.3056 28.5825C85.2029 27.4452 84.3358 26.0717 83.7607 24.5513C82.5863 21.3691 82.5863 17.8265 83.7607 14.6443C84.3362 13.1241 85.2033 11.7507 86.3056 10.6131C87.4643 9.43075 88.8278 8.50345 90.3191 7.8837C92.004 7.18905 93.7975 6.84728 95.6024 6.87689C96.9844 6.87097 98.3565 7.12642 99.6557 7.63152C100.961 8.14278 102.174 8.89445 103.239 9.85271L102.143 11.2378C101.231 10.4281 100.199 9.78929 99.0896 9.34833C97.9746 8.90284 96.7941 8.6755 95.6042 8.67713C94.2881 8.6559 92.9843 8.95017 91.7878 9.53844C90.6777 10.0923 89.6853 10.8846 88.8722 11.8663C88.0465 12.8749 87.4086 14.0437 86.9929 15.3096C86.1055 18.0566 86.1055 21.0439 86.9929 23.7909C87.4086 25.0568 88.0465 26.2257 88.8722 27.2342C89.6853 28.216 90.6777 29.0083 91.7878 29.5621C92.9836 30.1508 94.2868 30.4457 95.6024 30.4254Z" fill="white"/>
<path d="M126.278 32.2741H123.577L120.837 24.6328H114.534L111.794 32.2741H110.347L117.582 12.1205H119.029L126.278 32.2741ZM120.289 23.1566L117.665 15.8936L115.042 23.1566H120.289Z" fill="white"/>
<path d="M146.606 12.1205V13.5967H139.756V32.2819H137.061V13.5967H130.204V12.1282L146.606 12.1205Z" fill="white"/>
<path d="M166.486 32.2741H163.784L161.043 24.6328H154.742L152.002 32.2741H150.555L157.79 12.1205H159.237L166.486 32.2741ZM160.495 23.1566L157.873 15.8936L155.25 23.1566H160.495Z" fill="white"/>
<path d="M186.237 30.8037V32.2741H173.983V12.1205H176.686V30.8037H186.237Z" fill="white"/>
<path d="M205.973 12.1204L199.476 22.6173V32.2741H196.774V23.1566L189.962 12.1146H193.218L198.776 21.141L204.334 12.1146L205.973 12.1204Z" fill="white"/>
<path d="M218.928 20.3866L220.689 21.4575C221.252 21.7981 221.771 22.214 222.236 22.6951C222.71 23.2003 223.088 23.7991 223.35 24.4585C223.66 25.285 223.807 26.1713 223.782 27.0618C223.789 27.8114 223.605 28.5488 223.252 29.1957C222.894 29.8468 222.415 30.4115 221.843 30.8543C221.232 31.3296 220.55 31.6915 219.827 31.9252C219.053 32.1785 218.248 32.3054 217.439 32.3015C216.616 32.2859 215.798 32.1448 215.012 31.8825C214.126 31.6031 213.226 30.9313 212.312 29.8669L213.29 28.8601C213.995 29.7279 214.694 30.2737 215.385 30.4974C216.038 30.7145 216.717 30.8276 217.401 30.833C218.497 30.833 219.378 30.5323 220.042 29.9309C220.706 29.3296 221.039 28.3596 221.04 27.0211C221.04 26.2374 220.721 25.5099 220.082 24.8387C219.318 24.0707 218.467 23.4079 217.55 22.8658C216.977 22.5283 216.409 22.192 215.848 21.8571C215.308 21.5379 214.797 21.1657 214.321 20.7455C213.866 20.3436 213.487 19.8517 213.205 19.2964C212.901 18.6605 212.753 17.9523 212.775 17.2382C212.775 15.6707 213.309 14.4253 214.379 13.5019C215.448 12.5785 216.819 12.1168 218.49 12.1168C219.201 12.1221 219.907 12.2425 220.585 12.4738C221.277 12.7004 221.94 13.0177 222.56 13.4185L221.816 14.6368C221.322 14.2864 220.781 14.017 220.212 13.8375C219.655 13.6491 219.074 13.5504 218.49 13.5446C218.088 13.5486 217.687 13.5981 217.295 13.692C216.878 13.7833 216.476 13.9388 216.101 14.1537C215.741 14.3581 215.428 14.6441 215.182 14.9918C214.931 15.3482 214.8 15.785 214.809 16.2314C214.8 16.7004 214.923 17.1616 215.162 17.5544C215.42 17.9566 215.737 18.3111 216.101 18.6039C216.52 18.9443 216.965 19.246 217.432 19.5059C217.932 19.7904 218.431 20.084 218.928 20.3866Z" fill="white"/>
<path d="M247.001 12.1205V13.5967H240.158V32.2819H237.445V13.5967H230.594V12.1282L247.001 12.1205Z" fill="white"/>
<path d="M118.256 0L114.579 6.83039L118.256 4.47341L121.933 6.83039L118.256 0Z" fill="white"/>
<path d="M50.8027 50.4549V42.6779H55.6248V43.3045H51.4864V46.1115H55.2214V46.7381H51.4864V49.8264H55.7261V50.4549H50.8027Z" fill="white"/>
<path d="M57.1737 50.4549H56.5732V44.8602H57.1774V45.7021H57.1973C57.3549 45.3938 57.5887 45.138 57.873 44.9628C58.1573 44.7876 58.4811 44.6997 58.8088 44.7089C59.7747 44.7089 60.1165 45.1938 60.339 45.7875C60.4944 45.4502 60.7378 45.1687 61.0397 44.9772C61.3415 44.7857 61.6888 44.6925 62.0392 44.7089C63.459 44.7089 63.667 45.7991 63.667 46.9223V50.4549H63.0629V46.5867C63.0629 45.7875 62.8025 45.2908 61.9469 45.2908C61.7173 45.2892 61.4905 45.3462 61.2854 45.4572C61.0804 45.5682 60.9029 45.7299 60.7677 45.9291C60.5072 46.2957 60.4258 46.9766 60.4258 47.4403V50.4549H59.8109V46.5867C59.8109 45.7875 59.5486 45.2908 58.6931 45.2908C58.4637 45.2895 58.2373 45.3467 58.0326 45.4576C57.8278 45.5686 57.6506 45.7302 57.5156 45.9291C57.2533 46.2957 57.1737 46.9766 57.1737 47.4403V50.4549Z" fill="white"/>
<path d="M65.483 52.6549H64.8789V44.8604H65.483V45.842H65.5029C65.6857 45.5 65.9489 45.2155 66.2663 45.0167C66.5837 44.8179 66.9441 44.7118 67.3116 44.7091C68.9919 44.7091 69.663 45.9933 69.663 47.6461C69.663 49.2116 68.9286 50.6045 67.3388 50.6045C66.9709 50.6135 66.6069 50.5222 66.281 50.3389C65.9552 50.1557 65.6781 49.8866 65.4758 49.5569L65.483 52.6549ZM67.2447 50.0206C68.4927 50.0206 69.0769 48.8877 69.0263 47.4832C69.0173 46.0806 68.2612 45.2911 67.2447 45.2911C66.107 45.2911 65.483 46.3289 65.483 47.6772C65.483 48.942 66.1468 50.0206 67.2447 50.0206Z" fill="white"/>
<path d="M70.4121 47.6556C70.4121 46.0261 71.2188 44.7089 72.8286 44.7089C74.4383 44.7089 75.245 46.0144 75.245 47.6556C75.245 49.4267 74.2882 50.6042 72.8286 50.6042C71.501 50.5829 70.4121 49.611 70.4121 47.6556ZM72.8286 45.2908C71.5625 45.2908 71.0578 46.4548 71.0578 47.6556C71.0578 49.0484 71.671 50.0203 72.8286 50.0203C74.0947 50.0203 74.6011 48.8564 74.6011 47.6556C74.5902 46.3384 74.1164 45.2908 72.8286 45.2908Z" fill="white"/>
<path d="M80.4664 49.5897L81.8356 44.8602H82.4506L80.7594 50.4549H80.1155L78.9778 45.7584H78.958L77.7986 50.4549H77.0751L75.4834 44.8622H76.0875L77.4368 49.6343L78.645 44.8622H79.3197L80.4664 49.5897Z" fill="white"/>
<path d="M83.3421 47.8069C83.3421 49.0174 83.9372 50.0203 85.0948 50.0203C85.8798 50.0203 86.4929 49.5567 86.6756 48.7361H87.3503C87.0482 49.7933 86.4242 50.6042 85.0948 50.6042C83.4235 50.6042 82.6982 49.3297 82.6982 47.6769C82.6982 46.0241 83.6026 44.7089 85.0948 44.7089C86.5237 44.7089 87.3991 45.7991 87.3901 47.8127L83.3421 47.8069ZM86.7462 47.2676C86.7462 46.1774 86.1818 45.2908 85.0948 45.2908C84.0078 45.2908 83.4669 46.2084 83.3421 47.2676H86.7462Z" fill="white"/>
<path d="M88.9645 50.4548H88.3604V44.8602H88.9645V45.9077H88.9844C89.3172 45.0115 89.8109 44.7089 90.6864 44.7089V45.4111C89.3262 45.3781 88.9645 46.4567 88.9645 47.7099V50.4548Z" fill="white"/>
<path d="M100.774 42.354V53.1515H100.163V42.354H100.774Z" fill="white"/>
<path d="M115.946 44.9358C115.664 43.6069 114.899 43.0987 113.662 43.0987C111.909 43.0987 111.155 44.7088 111.155 46.544C111.155 48.2899 111.748 50.0358 113.722 50.0358C114.97 50.0358 115.746 49.1279 116.017 47.9019H116.74C116.418 49.4014 115.543 50.6663 113.6 50.6663C111.365 50.6663 110.479 48.7768 110.479 46.5731C110.479 43.6031 111.925 42.4818 113.852 42.4818C115.342 42.4818 116.429 43.3334 116.661 44.9435L115.946 44.9358Z" fill="white"/>
<path d="M117.505 47.6556C117.505 46.0261 118.31 44.7089 119.92 44.7089C121.529 44.7089 122.336 46.0144 122.336 47.6556C122.336 49.4267 121.381 50.6042 119.92 50.6042C118.592 50.5829 117.505 49.611 117.505 47.6556ZM119.92 45.2908C118.653 45.2908 118.149 46.4548 118.149 47.6556C118.149 49.0484 118.762 50.0203 119.92 50.0203C121.186 50.0203 121.692 48.8564 121.692 47.6556C121.687 46.3384 121.198 45.2908 119.92 45.2908Z" fill="white"/>
<path d="M123.876 50.4548H123.271V44.8602H123.876V45.6361C124.359 45.0871 124.832 44.7089 125.558 44.7089C126.191 44.7089 126.775 44.9242 127.148 45.5081C127.399 45.9077 127.41 46.3287 127.41 46.7923V50.4548H126.806V46.804C126.806 45.7991 126.422 45.2908 125.456 45.2908C125.139 45.2884 124.83 45.3922 124.57 45.5876C124.311 45.7831 124.115 46.0604 124.009 46.3811C123.906 46.7226 123.862 47.0816 123.879 47.4402L123.876 50.4548Z" fill="white"/>
<path d="M129.229 50.4548H128.625V44.8602H129.229V45.6361C129.712 45.0871 130.186 44.7089 130.909 44.7089C131.544 44.7089 132.128 44.9242 132.501 45.5081C132.752 45.9077 132.762 46.3287 132.762 46.7923V50.4548H132.157V46.804C132.157 45.7991 131.776 45.2908 130.81 45.2908C130.493 45.2884 130.183 45.3922 129.924 45.5876C129.664 45.7831 129.468 46.0604 129.363 46.3811C129.258 46.7224 129.214 47.0816 129.233 47.4402L129.229 50.4548Z" fill="white"/>
<path d="M134.363 47.8069C134.352 49.0174 134.956 50.0203 136.113 50.0203C136.898 50.0203 137.513 49.5567 137.694 48.7361H138.369C138.067 49.7933 137.443 50.6042 136.113 50.6042C134.442 50.6042 133.717 49.3297 133.717 47.6769C133.717 46.0241 134.621 44.7089 136.113 44.7089C137.544 44.7089 138.419 45.7991 138.409 47.8127L134.363 47.8069ZM137.765 47.2676C137.765 46.1774 137.2 45.2908 136.113 45.2908C135.026 45.2908 134.486 46.2084 134.363 47.2676H137.765Z" fill="white"/>
<path d="M143.071 46.6197C142.859 45.7874 142.325 45.2908 141.521 45.2908C140.282 45.2908 139.768 46.5013 139.768 47.6672C139.768 48.8331 140.273 50.0203 141.521 50.0203C142.416 50.0203 142.98 49.4383 143.121 48.5208H143.765C143.554 49.7623 142.83 50.6042 141.521 50.6042C139.86 50.6042 139.124 49.3181 139.124 47.6672C139.124 46.1153 139.96 44.7089 141.521 44.7089C142.718 44.7089 143.51 45.3238 143.691 46.6197H143.071Z" fill="white"/>
<path d="M146.467 50.4742C146.241 50.5477 146.008 50.5914 145.772 50.6042C145.177 50.6042 144.846 50.3229 144.846 49.4926V45.3994H144.115V44.8601H144.851V43.3082H145.456V44.8601H146.43V45.3994H145.456V49.2327C145.456 49.7836 145.475 50.0203 145.978 50.0203C146.145 50.0161 146.311 49.9907 146.472 49.9446L146.467 50.4742Z" fill="white"/>
<path d="M156.526 42.354V53.1515H155.922V42.354H156.526Z" fill="white"/>
<path d="M166.796 50.4549V42.6779H167.48V50.4549H166.796Z" fill="white"/>
<path d="M169.521 50.4549H168.917V44.8603H169.521V45.7022H169.541C169.699 45.3939 169.932 45.1381 170.217 44.9629C170.501 44.7877 170.825 44.6998 171.153 44.709C172.118 44.709 172.46 45.1939 172.683 45.7875C172.838 45.45 173.082 45.1683 173.384 44.9768C173.686 44.7853 174.034 44.6922 174.385 44.709C175.803 44.709 176.013 45.7992 176.013 46.9224V50.4549H175.405V46.5868C175.405 45.7875 175.143 45.2909 174.287 45.2909C174.058 45.2896 173.831 45.3468 173.627 45.4577C173.422 45.5687 173.245 45.7303 173.11 45.9291C172.847 46.2958 172.766 46.9767 172.766 47.4403V50.4549H172.162V46.5868C172.162 45.7875 171.901 45.2909 171.046 45.2909C170.816 45.2893 170.589 45.3463 170.384 45.4573C170.179 45.5683 170.002 45.73 169.867 45.9291C169.606 46.2958 169.525 46.9767 169.525 47.4403L169.521 50.4549Z" fill="white"/>
<path d="M177.831 52.6547H177.227V44.8602H177.831V45.8418H177.851C178.033 45.4998 178.297 45.2152 178.614 45.0164C178.931 44.8176 179.292 44.7116 179.659 44.7089C181.341 44.7089 182.011 45.9931 182.011 47.6459C182.011 49.2114 181.274 50.6042 179.685 50.6042C179.317 50.6133 178.953 50.5219 178.627 50.3387C178.301 50.1554 178.024 49.8863 177.822 49.5567L177.831 52.6547ZM179.592 50.0203C180.84 50.0203 181.425 48.8874 181.374 47.4829C181.374 46.0804 180.609 45.2908 179.592 45.2908C178.455 45.2908 177.831 46.3287 177.831 47.6769C177.831 48.9417 178.496 50.0203 179.592 50.0203Z" fill="white"/>
<path d="M185.387 47.1919C185.658 47.1693 185.926 47.1073 186.182 47.0076C186.383 46.9106 186.403 46.6197 186.403 46.4257C186.403 45.7661 186.041 45.2908 185.104 45.2908C184.269 45.2908 183.695 45.5838 183.585 46.5537H182.97C183.06 45.2365 183.978 44.7089 185.115 44.7089C186.171 44.7089 187.007 45.1512 187.007 46.4548V49.4849C187.007 49.9912 187.128 50.1095 187.642 49.9156V50.4238C187.489 50.4831 187.33 50.5191 187.168 50.5305C187.077 50.5313 186.986 50.5208 186.897 50.4995C186.493 50.4335 186.425 50.0552 186.414 49.6672C186.171 49.9626 185.872 50.1984 185.537 50.3587C185.202 50.5191 184.838 50.6001 184.471 50.5965C183.554 50.5965 182.729 50.0669 182.729 48.9863C182.729 48.0474 183.334 47.4752 184.551 47.3025L185.387 47.1919ZM186.403 47.5159C185.902 47.7094 185.376 47.8149 184.844 47.8282C183.927 47.9039 183.373 48.2608 183.373 49.0174C183.373 49.6964 183.927 50.0203 184.5 50.0203C185.457 50.0203 186.403 49.5237 186.403 48.3908V47.5159Z" fill="white"/>
<path d="M191.966 46.6197C191.755 45.7874 191.221 45.2908 190.416 45.2908C189.177 45.2908 188.663 46.5013 188.663 47.6672C188.663 48.8331 189.166 50.0203 190.416 50.0203C191.32 50.0203 191.876 49.4383 192.017 48.5208H192.661C192.449 49.7623 191.724 50.6042 190.416 50.6042C188.754 50.6042 188.02 49.3181 188.02 47.6672C188.02 46.1153 188.855 44.7089 190.416 44.7089C191.613 44.7089 192.406 45.3238 192.587 46.6197H191.966Z" fill="white"/>
<path d="M195.363 50.4742C195.136 50.5479 194.902 50.5916 194.666 50.6042C194.073 50.6042 193.74 50.3229 193.74 49.4926V45.3994H193.006V44.8601H193.74V43.3082H194.344V44.8601H195.321V45.3994H194.344V49.2327C194.344 49.7836 194.366 50.0203 194.869 50.0203C195.036 50.0161 195.201 49.9907 195.363 49.9446V50.4742Z" fill="white"/>
</svg>
